<svg xmlns="http://www.w3.org/2000/svg" viewBox="0 0 64 64">
  <defs>
    <linearGradient id="g" x1="0" y1="0" x2="1" y2="1">
      <stop offset="0" stop-color="#f7c14b"/>
      <stop offset="1" stop-color="#e89f1f"/>
    </linearGradient>
  </defs>
  <rect width="64" height="64" rx="16" fill="url(#g)"/>
  <g fill="#a06f12" opacity="0.45">
    <ellipse cx="16" cy="16" rx="3" ry="5"/>
    <ellipse cx="24" cy="16" rx="3" ry="5"/>
    <ellipse cx="32" cy="16" rx="3" ry="5"/>
    <ellipse cx="40" cy="16" rx="3" ry="5"/>
    <ellipse cx="48" cy="16" rx="3" ry="5"/>
    <ellipse cx="16" cy="26" rx="3" ry="5"/>
    <ellipse cx="24" cy="26" rx="3" ry="5"/>
    <ellipse cx="32" cy="26" rx="3" ry="5"/>
    <ellipse cx="40" cy="26" rx="3" ry="5"/>
    <ellipse cx="48" cy="26" rx="3" ry="5"/>
    <ellipse cx="16" cy="36" rx="3" ry="5"/>
    <ellipse cx="24" cy="36" rx="3" ry="5"/>
    <ellipse cx="32" cy="36" rx="3" ry="5"/>
    <ellipse cx="40" cy="36" rx="3" ry="5"/>
    <ellipse cx="48" cy="36" rx="3" ry="5"/>
    <ellipse cx="16" cy="46" rx="3" ry="5"/>
    <ellipse cx="24" cy="46" rx="3" ry="5"/>
    <ellipse cx="32" cy="46" rx="3" ry="5"/>
    <ellipse cx="40" cy="46" rx="3" ry="5"/>
    <ellipse cx="48" cy="46" rx="3" ry="5"/>
  </g>
  <path d="M32 8 L34.5 14.5 L41 17 L34.5 19.5 L32 26 L29.5 19.5 L23 17 L29.5 14.5 Z" fill="#1f6e46"/>
  <path d="M41 26 L41.9 28.6 L44.5 29.5 L41.9 30.4 L41 33 L40.1 30.4 L37.5 29.5 L40.1 28.6 Z" fill="#45b070"/>
</svg>
